<svg width="1600" height="900" viewBox="0 0 1600 900" fill="none" xmlns="http://www.w3.org/2000/svg">
  <defs>
    <linearGradient id="shieldGrad" x1="800" y1="220" x2="800" y2="660" gradientUnits="userSpaceOnUse">
      <stop stop-color="#C85D2B"/>
      <stop offset="1" stop-color="#6D2712"/>
    </linearGradient>
    <linearGradient id="spearGrad" x1="750" y1="200" x2="830" y2="720" gradientUnits="userSpaceOnUse">
      <stop stop-color="#F7E5C0"/>
      <stop offset="1" stop-color="#D6883E"/>
    </linearGradient>
  </defs>
  <rect width="1600" height="900" rx="40" fill="#FFF3E8"/>
  <circle cx="800" cy="300" r="210" fill="#F5D3A9" opacity="0.8"/>
  <path d="M800 230C930 230 1010 300 1010 400C1010 520 880 700 800 700C720 700 590 520 590 400C590 300 670 230 800 230Z" fill="url(#shieldGrad)" stroke="#8A3B1A" stroke-width="18"/>
  <circle cx="800" cy="430" r="120" fill="#F4C884"/>
  <path d="M770 250L760 680" stroke="url(#spearGrad)" stroke-width="28" stroke-linecap="round"/>
  <path d="M830 270L820 650" stroke="#6D2712" stroke-width="18" stroke-linecap="round"/>
  <path d="M760 680L830 700L840 680L770 660Z" fill="#8A3B1A"/>
  <path d="M595 375C615 360 700 300 800 350C900 300 985 360 1005 375" stroke="#7A3912" stroke-width="22" stroke-linecap="round"/>
  <text x="800" y="840" text-anchor="middle" fill="#5A2B13" font-family="Inter, Arial, sans-serif" font-size="72" font-weight="700">Warrior Frames</text>
</svg>
